<?xml version="1.0" standalone="no"?>
<svg xmlns="http://www.w3.org/2000/svg" viewBox="0 0 128 29" width="128" height="29"><path fill="#000000" fill-rule="nonzero" d="M0 16.14L0 16.14Q0 15.49 0.08 14.95Q0.15 14.40 0.30 13.77L0.30 13.77L2.66 13.77L2.66 14.74Q2.66 15.55 2.76 16.17Q2.86 16.79 3.09 17.22Q3.32 17.65 3.70 17.87Q4.08 18.08 4.63 18.08L4.63 18.08Q5.50 18.08 5.95 17.61Q6.41 17.13 6.41 16.22L6.41 16.22Q6.41 15.75 6.35 15.36Q6.28 14.96 6.12 14.58Q5.96 14.19 5.70 13.76Q5.43 13.34 5.00 12.81L5.00 12.81L1.84 9.05Q1.00 7.97 0.54 6.87Q0.08 5.78 0.08 4.54L0.08 4.54Q0.08 3.54 0.39 2.71Q0.70 1.88 1.29 1.27Q1.88 0.67 2.74 0.33Q3.60 0 4.69 0L4.69 0Q6.01 0 6.90 0.38Q7.78 0.75 8.31 1.36Q8.84 1.97 9.05 2.72Q9.27 3.48 9.27 4.24L9.27 4.24Q9.27 4.89 9.17 5.43Q9.07 5.98 8.94 6.63L8.94 6.63L6.60 6.63L6.60 5.68Q6.60 4.09 6.14 3.24Q5.68 2.39 4.65 2.39L4.65 2.39Q3.80 2.39 3.38 2.87Q2.95 3.34 2.95 4.14L2.95 4.14Q2.95 4.56 3.02 4.90Q3.08 5.24 3.21 5.53Q3.33 5.81 3.50 6.08Q3.68 6.35 3.90 6.64L3.90 6.64L7.43 10.91Q8.39 12.16 8.91 13.32Q9.42 14.47 9.42 15.76L9.42 15.76Q9.42 16.83 9.09 17.68Q8.75 18.54 8.13 19.14Q7.51 19.73 6.63 20.06Q5.75 20.38 4.65 20.38L4.65 20.38Q3.29 20.38 2.40 20.02Q1.50 19.65 0.97 19.05Q0.43 18.46 0.22 17.70Q0 16.93 0 16.14ZM15.68 20.37L15.68 20.37Q14.64 20.37 13.83 19.98Q13.03 19.59 12.48 18.77Q11.93 17.95 11.65 16.67Q11.37 15.39 11.37 13.58L11.37 13.58L11.37 10.54Q11.37 9 11.60 7.90Q11.82 6.81 12.19 6.06Q12.56 5.32 13.05 4.89Q13.54 4.45 14.05 4.22Q14.57 4.00 15.08 3.93Q15.59 3.87 16.02 3.87L16.02 3.87Q16.82 3.87 17.55 4.11Q18.29 4.35 18.86 4.93Q19.42 5.51 19.75 6.48Q20.09 7.45 20.09 8.91L20.09 8.91Q20.09 9.40 20.06 9.90Q20.03 10.41 19.98 10.89Q19.93 11.38 19.86 11.84Q19.78 12.29 19.70 12.68L19.70 12.68L14.34 12.68L14.34 14.32Q14.34 15.38 14.43 16.10Q14.51 16.82 14.70 17.26Q14.89 17.70 15.23 17.89Q15.56 18.08 16.07 18.08L16.07 18.08Q16.34 18.08 16.59 17.97Q16.85 17.86 17.04 17.60Q17.24 17.34 17.36 16.92Q17.47 16.49 17.47 15.86L17.47 15.86L17.47 15.35L19.95 15.35L19.95 15.97Q19.95 18.27 18.85 19.32Q17.75 20.37 15.68 20.37ZM14.34 10.69L17.32 10.69Q17.33 10.56 17.34 10.34Q17.36 10.13 17.36 9.89Q17.37 9.66 17.37 9.43Q17.37 9.20 17.37 9.04L17.37 9.04Q17.37 7.44 16.99 6.74Q16.62 6.04 15.88 6.04L15.88 6.04Q15.49 6.04 15.20 6.22Q14.91 6.40 14.72 6.83Q14.53 7.25 14.44 7.96Q14.34 8.66 14.34 9.70L14.34 9.70L14.34 10.69ZM22.59 20.19L22.59 4.05L24.76 4.05L25.02 5.70Q25.51 4.78 26.15 4.32Q26.79 3.87 27.46 3.87L27.46 3.87Q28.73 3.87 29.34 4.65Q29.95 5.44 29.95 7.01L29.95 7.01Q29.95 7.21 29.92 7.48Q29.89 7.76 29.84 8.06Q29.79 8.36 29.71 8.65Q29.64 8.95 29.55 9.20L29.55 9.20L27.49 9.20L27.49 7.70Q27.49 7.21 27.43 6.89Q27.36 6.57 27.26 6.38Q27.15 6.19 27.01 6.11Q26.87 6.04 26.71 6.04L26.71 6.04Q26.36 6.04 26.06 6.26Q25.76 6.49 25.56 6.90L25.56 6.90L25.56 20.19L22.59 20.19ZM32.02 20.19L32.02 0.18L35.05 0.18L35.05 17.80L39.19 17.80L39.19 20.19L32.02 20.19ZM44.99 20.37L44.99 20.37Q44.47 20.37 43.94 20.29Q43.41 20.20 42.91 19.95Q42.41 19.69 41.97 19.21Q41.53 18.73 41.20 17.94Q40.88 17.16 40.69 16.01Q40.50 14.86 40.50 13.27L40.50 13.27L40.50 10.73Q40.50 9.16 40.69 8.04Q40.89 6.93 41.22 6.16Q41.55 5.40 42 4.95Q42.45 4.50 42.94 4.26Q43.44 4.02 43.97 3.94Q44.50 3.87 45 3.87L45 3.87Q45.48 3.87 46.00 3.94Q46.51 4.01 47.00 4.24Q47.50 4.46 47.94 4.92Q48.38 5.37 48.71 6.13Q49.04 6.89 49.24 8.02Q49.43 9.15 49.43 10.73L49.43 10.73L49.43 13.27Q49.43 14.84 49.23 15.97Q49.03 17.11 48.69 17.89Q48.35 18.68 47.91 19.17Q47.46 19.65 46.97 19.92Q46.48 20.19 45.97 20.28Q45.46 20.37 44.99 20.37ZM45.01 18.08L45.01 18.08Q45.41 18.08 45.69 17.88Q45.96 17.67 46.13 17.20Q46.30 16.73 46.38 15.97Q46.45 15.20 46.45 14.06L46.45 14.06L46.45 10.09Q46.45 8.95 46.38 8.18Q46.30 7.41 46.13 6.93Q45.96 6.46 45.69 6.25Q45.41 6.04 45.01 6.04L45.01 6.04Q44.59 6.04 44.30 6.25Q44.02 6.46 43.83 6.93Q43.64 7.41 43.56 8.18Q43.48 8.95 43.48 10.09L43.48 10.09L43.48 14.06Q43.48 15.20 43.56 15.97Q43.64 16.73 43.83 17.20Q44.02 17.67 44.30 17.88Q44.59 18.08 45.01 18.08ZM54.93 19.13L55.02 21.11L55.02 25.41L52.05 25.41L52.05 4.05L54.38 4.05L54.64 5.75Q54.84 5.43 55.12 5.09Q55.39 4.75 55.76 4.48Q56.13 4.22 56.60 4.05Q57.06 3.88 57.63 3.88L57.63 3.88Q57.88 3.88 58.22 3.93Q58.57 3.97 58.94 4.16Q59.31 4.35 59.68 4.72Q60.05 5.09 60.33 5.73Q60.62 6.38 60.80 7.34Q60.98 8.30 60.98 9.67L60.98 9.67L60.98 14.55Q60.98 15.93 60.80 16.89Q60.62 17.85 60.33 18.49Q60.04 19.14 59.66 19.51Q59.29 19.89 58.90 20.07Q58.51 20.26 58.15 20.31Q57.79 20.37 57.52 20.37L57.52 20.37Q56.58 20.37 55.95 20.00Q55.32 19.64 54.93 19.13L54.93 19.13ZM55.02 7.15L55.02 16.90Q55.11 17.13 55.25 17.34Q55.38 17.55 55.56 17.72Q55.75 17.88 55.97 17.98Q56.20 18.08 56.51 18.08L56.51 18.08Q56.84 18.08 57.11 17.96Q57.38 17.84 57.57 17.51Q57.77 17.19 57.88 16.62Q58.00 16.04 58.00 15.14L58.00 15.14L58.00 8.96Q58.00 8.06 57.88 7.49Q57.77 6.93 57.58 6.60Q57.39 6.27 57.12 6.15Q56.85 6.04 56.52 6.04L56.52 6.04Q55.96 6.04 55.60 6.37Q55.24 6.70 55.02 7.15L55.02 7.15ZM67.55 20.37L67.55 20.37Q66.50 20.37 65.70 19.98Q64.90 19.59 64.35 18.77Q63.80 17.95 63.52 16.67Q63.23 15.39 63.23 13.58L63.23 13.58L63.23 10.54Q63.23 9 63.46 7.90Q63.69 6.81 64.06 6.06Q64.43 5.32 64.92 4.89Q65.40 4.45 65.92 4.22Q66.43 4.00 66.94 3.93Q67.45 3.87 67.89 3.87L67.89 3.87Q68.68 3.87 69.42 4.11Q70.16 4.35 70.72 4.93Q71.29 5.51 71.62 6.48Q71.95 7.45 71.95 8.91L71.95 8.91Q71.95 9.40 71.92 9.90Q71.89 10.41 71.85 10.89Q71.80 11.38 71.72 11.84Q71.65 12.29 71.57 12.68L71.57 12.68L66.21 12.68L66.21 14.32Q66.21 15.38 66.29 16.10Q66.38 16.82 66.57 17.26Q66.76 17.70 67.10 17.89Q67.43 18.08 67.93 18.08L67.93 18.08Q68.20 18.08 68.46 17.97Q68.72 17.86 68.91 17.60Q69.11 17.34 69.22 16.92Q69.34 16.49 69.34 15.86L69.34 15.86L69.34 15.35L71.81 15.35L71.81 15.97Q71.81 18.27 70.72 19.32Q69.62 20.37 67.55 20.37ZM66.21 10.69L69.19 10.69Q69.20 10.56 69.21 10.34Q69.22 10.13 69.23 9.89Q69.23 9.66 69.23 9.43Q69.23 9.20 69.23 9.04L69.23 9.04Q69.23 7.44 68.86 6.74Q68.48 6.04 67.75 6.04L67.75 6.04Q67.36 6.04 67.07 6.22Q66.77 6.40 66.59 6.83Q66.40 7.25 66.30 7.96Q66.21 8.66 66.21 9.70L66.21 9.70L66.21 10.69ZM73.20 20.19L73.20 18.71L77.72 6.30L73.58 6.30L73.58 4.05L80.89 4.05L80.89 5.53L76.36 17.94L80.92 17.94L80.92 20.19L73.20 20.19Z" transform="translate(0, 1.797)"></path><line x1="89.91796875" y1="2%" x2="89.91796875" y2="98%" stroke="#000000" stroke-linecap="round"></line><g fill="#000000" color="#000000" transform="translate(98.91796875 0) scale(1.8125)"><svg width="16.0" height="16.0" x="0.0" y="0.0" viewBox="0 0 16 16"><path d="M7.969 0l-1.969 11.844-.031.156h2.063l1.969-11.844.031-.156h-2.063zm-2.969 1.813l-.531.344-4 2.5-.469.281v2.126l.469.281 4 2.5.531.344v-2.375l-2.906-1.813 2.906-1.813v-2.375zm6 0v2.375l2.906 1.813-2.906 1.813v2.375l.531-.344 4-2.5.469-.281v-2.126l-.469-.281-4-2.5-.531-.344z" transform="translate(0 2)"></path></svg></g></svg>