<?xml version="1.0" standalone="no"?>
<svg xmlns="http://www.w3.org/2000/svg" viewBox="0 0 137.3 29" width="137.3" height="29"><path fill="#4a4a4c" fill-rule="nonzero" d="M0 14.23L0 14.23L0.77 13.15Q2.52 14.16 4.49 14.16L4.49 14.16Q6 14.16 6.86 13.45Q7.73 12.74 7.73 11.45L7.73 11.45Q7.73 9.24 4.82 8.23L4.82 8.23Q2.35 7.39 1.25 6.36Q0.14 5.33 0.14 3.84L0.14 3.84Q0.14 2.06 1.54 0.98L1.54 0.98Q2.81 0 4.87 0L4.87 0Q7.13 0 8.98 1.25L8.98 1.25L8.18 2.33Q6.70 1.54 4.99 1.54L4.99 1.54Q3.60 1.54 2.78 2.14Q1.97 2.74 1.97 3.77L1.97 3.77Q1.97 5.38 4.46 6.31L4.46 6.31Q7.30 7.39 8.44 8.53Q9.58 9.67 9.58 11.50L9.58 11.50Q9.58 13.58 7.97 14.78L7.97 14.78Q6.65 15.77 4.75 15.77L4.75 15.77Q2.38 15.77 0 14.23ZM21.65 10.06L21.65 10.58L13.87 10.58Q13.97 12.34 15.08 13.39Q16.20 14.45 17.98 14.45L17.98 14.45Q19.46 14.45 20.88 13.56L20.88 13.56L21.43 14.52Q19.85 15.77 17.62 15.77L17.62 15.77Q15.02 15.77 13.49 14.06L13.49 14.06Q12.07 12.53 12.07 10.08L12.07 10.08Q12.07 7.54 13.58 5.83L13.58 5.83Q14.95 4.30 16.97 4.30L16.97 4.30Q19.39 4.30 20.66 6.26L20.66 6.26Q21.65 7.80 21.65 10.06L21.65 10.06ZM13.85 9.29L13.85 9.29L19.99 9.29Q19.92 7.54 19.14 6.55Q18.36 5.57 16.99 5.57L16.99 5.57Q15.70 5.57 14.82 6.60Q13.94 7.63 13.85 9.29ZM31.78 5.52L31.78 5.52L30.46 6.43Q29.64 5.71 28.70 5.71L28.70 5.71Q27.34 5.71 26.28 7.13L26.28 7.13L26.28 15.48L24.67 15.48L24.67 4.58L26.04 4.58L26.18 5.74L26.23 5.74Q27.65 4.30 29.14 4.30L29.14 4.30Q30.89 4.30 31.78 5.52ZM42.12 15.48L34.37 15.48L34.37 0.29L36.14 0.29L36.14 13.97L42.12 13.97L42.12 15.48ZM55.08 10.06L55.08 10.06Q55.08 12.65 53.45 14.30L53.45 14.30Q51.98 15.77 49.85 15.77L49.85 15.77Q47.38 15.77 45.86 13.90L45.86 13.90Q44.59 12.31 44.59 10.06L44.59 10.06Q44.59 7.42 46.18 5.78L46.18 5.78Q47.62 4.30 49.85 4.30L49.85 4.30Q52.37 4.30 53.86 6.19L53.86 6.19Q55.08 7.78 55.08 10.06ZM46.32 10.06L46.32 10.06Q46.32 12.14 47.40 13.37L47.40 13.37Q48.36 14.45 49.82 14.45L49.82 14.45Q51.41 14.45 52.38 13.24Q53.35 12.02 53.35 10.06L53.35 10.06Q53.35 7.99 52.30 6.74L52.30 6.74Q51.34 5.59 49.85 5.59L49.85 5.59Q48.26 5.59 47.29 6.83Q46.32 8.06 46.32 10.06ZM58.10 19.85L58.10 4.58L59.38 4.58L59.59 5.76Q60.94 4.30 63.14 4.30L63.14 4.30Q65.50 4.30 66.86 6.07L66.86 6.07Q68.02 7.58 68.02 9.82L68.02 9.82Q68.02 12.77 66.34 14.42L66.34 14.42Q64.97 15.77 63.02 15.77L63.02 15.77Q60.91 15.77 59.71 14.47L59.71 14.47L59.71 19.85L58.10 19.85ZM59.71 7.54L59.71 7.54L59.71 12.70Q60 13.44 60.85 13.94Q61.70 14.45 62.62 14.45L62.62 14.45Q64.27 14.45 65.28 13.25Q66.29 12.05 66.29 10.06L66.29 10.06Q66.29 7.82 65.18 6.62L65.18 6.62Q64.27 5.62 62.78 5.62L62.78 5.62Q61.85 5.62 60.96 6.17Q60.07 6.72 59.71 7.54ZM79.90 10.06L79.90 10.58L72.12 10.58Q72.22 12.34 73.33 13.39Q74.45 14.45 76.22 14.45L76.22 14.45Q77.71 14.45 79.13 13.56L79.13 13.56L79.68 14.52Q78.10 15.77 75.86 15.77L75.86 15.77Q73.27 15.77 71.74 14.06L71.74 14.06Q70.32 12.53 70.32 10.08L70.32 10.08Q70.32 7.54 71.83 5.83L71.83 5.83Q73.20 4.30 75.22 4.30L75.22 4.30Q77.64 4.30 78.91 6.26L78.91 6.26Q79.90 7.80 79.90 10.06L79.90 10.06ZM72.10 9.29L72.10 9.29L78.24 9.29Q78.17 7.54 77.39 6.55Q76.61 5.57 75.24 5.57L75.24 5.57Q73.94 5.57 73.07 6.60Q72.19 7.63 72.10 9.29ZM90.29 14.16L90.29 15.48L81.65 15.48L81.65 14.09L88.25 5.90L82.06 5.90L82.06 4.58L90.14 4.58L90.14 5.98L83.57 14.16L90.29 14.16Z" transform="translate(0, 4.576)"></path><line x1="99.288" y1="2%" x2="99.288" y2="98%" stroke="#4a4a4c" stroke-linecap="round"></line><g fill="#4a4a4c" color="#4a4a4c" transform="translate(108.288 0) scale(0.58)"><svg width="50.0" height="50.0" x="0.0" y="0.0" viewBox="0 0 50 50"><path d="M17.422,36.759c-0.195,0-0.392-0.057-0.564-0.175L1.167,25.825C0.895,25.639,0.732,25.33,0.732,25s0.163-0.638,0.435-0.825  l15.69-10.759c0.457-0.312,1.078-0.196,1.39,0.259c0.313,0.456,0.196,1.078-0.259,1.39L3.5,25l14.488,9.934  c0.456,0.313,0.572,0.936,0.259,1.391C18.054,36.606,17.741,36.759,17.422,36.759z"></path><path d="M32.578,36.759c-0.318,0-0.632-0.151-0.826-0.435c-0.312-0.455-0.196-1.078,0.26-1.391L46.499,25l-14.487-9.934  c-0.456-0.313-0.571-0.935-0.26-1.39c0.313-0.455,0.935-0.572,1.391-0.259l15.69,10.759c0.272,0.187,0.435,0.495,0.435,0.825  s-0.162,0.639-0.435,0.825l-15.69,10.759C32.97,36.702,32.772,36.759,32.578,36.759z"></path><path d="M20.557,41.697c-0.173,0.525-0.738,0.811-1.263,0.638l0,0c-0.524-0.173-0.81-0.737-0.637-1.263l10.787-32.77  c0.173-0.525,0.738-0.81,1.263-0.637l0,0c0.524,0.173,0.81,0.738,0.638,1.263L20.557,41.697z"></path></svg></g></svg>